<?xml version="1.0" encoding="UTF-8" standalone="no"?>
<svg
   xmlns:dc="http://purl.org/dc/elements/1.1/"
   xmlns:cc="http://creativecommons.org/ns#"
   xmlns:rdf="http://www.w3.org/1999/02/22-rdf-syntax-ns#"
   xmlns:svg="http://www.w3.org/2000/svg"
   xmlns="http://www.w3.org/2000/svg"
   viewBox="0 0 800 266.66666"
   height="266.66666"
   width="800"
   xml:space="preserve"
   id="svg2"
   version="1.1"><metadata
     id="metadata8"><rdf:RDF><cc:Work
         rdf:about=""><dc:format>image/svg+xml</dc:format><dc:type
           rdf:resource="http://purl.org/dc/dcmitype/StillImage" /></cc:Work></rdf:RDF></metadata><defs
     id="defs6"><clipPath
       id="clipPath18"
       clipPathUnits="userSpaceOnUse"><path
         id="path16"
         d="M 0,200 H 600 V 0 H 0 Z" /></clipPath></defs><g
     transform="matrix(1.3333333,0,0,-1.3333333,0,266.66667)"
     id="g10"><g
       id="g12"><g
         clip-path="url(#clipPath18)"
         id="g14"><g
           transform="translate(51.4712,49.5098)"
           id="g20"><path
             id="path22"
             style="fill:#414142;fill-opacity:1;fill-rule:nonzero;stroke:none"
             d="m 0,0 6.05,8.066 c 6.318,-5.109 12.906,-8.605 21.645,-8.605 9.681,0 14.386,5.109 14.386,11.428 0,7.394 -8.604,10.756 -16.671,13.849 -10.218,3.764 -21.78,8.739 -21.78,21.108 0,11.562 9.277,20.703 25.141,20.703 9.007,0 16.941,-3.764 22.721,-8.201 l -5.915,-7.932 c -5.109,3.765 -10.219,6.454 -16.806,6.454 -9.142,0 -13.31,-4.841 -13.31,-10.487 0,-6.99 7.933,-9.545 16.134,-12.637 10.621,-4.035 22.317,-8.336 22.317,-22.183 0,-11.833 -9.411,-21.647 -26.62,-21.647 C 16.94,-10.084 6.991,-5.781 0,0" /></g><g
           transform="translate(121.7866,63.7598)"
           id="g24"><path
             id="path26"
             style="fill:#414142;fill-opacity:1;fill-rule:nonzero;stroke:none"
             d="m 0,0 v 40.468 h -10.89 v 9.278 l 11.428,0.671 1.48,20.436 H 12.234 V 50.417 H 31.998 V 40.468 H 12.234 V -0.268 c 0,-9.007 2.825,-14.117 11.294,-14.117 2.555,0 5.915,0.942 8.336,1.883 l 2.42,-9.143 C 30.116,-22.99 25.276,-24.334 20.84,-24.334 5.244,-24.334 0,-14.654 0,0" /></g><g
           transform="translate(207.4312,58.9199)"
           id="g28"><path
             id="path30"
             style="fill:#414142;fill-opacity:1;fill-rule:nonzero;stroke:none"
             d="m 0,0 v 20.436 c -24.604,-2.957 -32.938,-9.008 -32.938,-18.418 0,-8.336 5.646,-11.698 12.907,-11.698 7.125,0 12.906,3.362 20.031,9.68 m -44.904,1.211 c 0,15.863 13.847,23.797 44.904,27.291 0,9.412 -3.092,18.419 -15.058,18.419 -8.469,0 -16.133,-3.898 -21.915,-7.798 l -4.84,8.47 c 6.723,4.303 17.076,9.546 28.772,9.546 17.747,0 25.275,-11.966 25.275,-29.981 V -17.746 H 2.151 L 1.076,-9.008 H 0.672 c -6.99,-5.781 -15.192,-10.486 -24.199,-10.486 -12.235,0 -21.377,7.529 -21.377,20.705" /></g><g
           transform="translate(237.4146,77.6074)"
           id="g32"><path
             id="path34"
             style="fill:#414142;fill-opacity:1;fill-rule:nonzero;stroke:none"
             d="m 0,0 c 0,24.335 16.536,38.452 35.225,38.452 9.546,0 16.133,-4.034 21.376,-8.605 L 50.282,21.646 C 45.979,25.544 41.544,28.234 35.628,28.234 22.452,28.234 12.772,16.807 12.772,0 c 0,-16.805 9.143,-27.963 22.586,-27.963 6.723,0 12.639,3.092 17.209,7.26 l 5.245,-8.201 C 51.358,-34.82 43.022,-38.182 34.283,-38.182 14.923,-38.182 0,-24.199 0,0" /></g><g
           transform="translate(306.9219,76.3984)"
           id="g36"><path
             id="path38"
             style="fill:#414142;fill-opacity:1;fill-rule:nonzero;stroke:none"
             d="m 0,0 c 0,23.796 14.789,37.375 31.863,37.375 9.682,0 16,-4.436 20.705,-8.874 L 49.477,25.006 C 44.771,29.443 39.125,32.939 31.863,32.939 16.941,32.939 5.109,19.494 5.109,0 c 0,-19.359 10.621,-32.535 26.754,-32.535 7.799,0 14.657,3.764 19.629,8.469 l 2.824,-3.495 C 48.4,-32.805 40.871,-36.973 31.73,-36.973 13.715,-36.973 0,-23.395 0,0" /></g><g
           transform="translate(418.7832,55.8281)"
           id="g40"><path
             id="path42"
             style="fill:#414142;fill-opacity:1;fill-rule:nonzero;stroke:none"
             d="M 0,0 V 25.41 C -30.787,22.049 -41.275,14.924 -41.275,2.957 c 0,-10.889 7.259,-14.922 15.865,-14.922 8.471,0 16.133,4.033 25.41,11.965 m -46.25,2.824 c 0,15.729 14.387,23.123 46.25,26.754 0.402,11.428 -2.555,23.931 -17.209,23.931 -10.084,0 -18.553,-4.974 -23.125,-8.605 l -2.42,3.899 c 4.438,3.227 14.252,9.143 25.815,9.143 C -0.27,57.946 4.84,45.577 4.84,31.191 V -14.654 H 0.807 l -0.672,9.41 H -0.27 c -7.259,-5.914 -16.132,-11.158 -25.544,-11.158 -11.024,0 -20.436,5.781 -20.436,19.226" /></g><g
           transform="translate(449.9785,59.9961)"
           id="g44"><path
             id="path46"
             style="fill:#414142;fill-opacity:1;fill-rule:nonzero;stroke:none"
             d="m 0,0 v 47.593 h -11.295 v 3.764 L 0,52.03 0.537,72.734 H 4.705 V 52.03 H 25.678 V 47.593 H 4.705 V -0.672 c 0,-9.142 2.016,-15.461 12.369,-15.461 2.688,0 6.453,1.074 9.008,2.285 l 1.613,-4.033 C 23.527,-19.359 19.09,-20.57 16.67,-20.57 3.494,-20.57 0,-12.369 0,0" /></g><g
           transform="translate(543.5547,76.3984)"
           id="g48"><path
             id="path50"
             style="fill:#414142;fill-opacity:1;fill-rule:nonzero;stroke:none"
             d="m 0,0 c 0,19.494 -11.428,32.939 -26.486,32.939 -15.057,0 -26.352,-13.445 -26.352,-32.939 0,-19.359 11.295,-32.535 26.352,-32.535 C -11.428,-32.535 0,-19.359 0,0 m -57.945,0 c 0,23.796 14.519,37.375 31.459,37.375 16.941,0 31.461,-13.579 31.461,-37.375 0,-23.395 -14.52,-36.973 -31.461,-36.973 -16.94,0 -31.459,13.578 -31.459,36.973" /></g><g
           transform="translate(82.0601,156.9409)"
           id="g52"><path
             id="path54"
             style="fill:#939598;fill-opacity:1;fill-rule:nonzero;stroke:none"
             d="m 0,0 c 0,2.006 -1.626,3.633 -3.633,3.633 -2.006,0 -3.633,-1.627 -3.633,-3.633 0,-2.006 1.627,-3.633 3.633,-3.633 C -1.626,-3.633 0,-2.006 0,0" /></g><g
           transform="translate(144.6909,156.9409)"
           id="g56"><path
             id="path58"
             style="fill:#939598;fill-opacity:1;fill-rule:nonzero;stroke:none"
             d="m 0,0 c 0,2.006 -1.627,3.633 -3.633,3.633 -2.006,0 -3.633,-1.627 -3.633,-3.633 0,-2.006 1.627,-3.633 3.633,-3.633 C -1.627,-3.633 0,-2.006 0,0" /></g><g
           transform="translate(207.3218,156.9409)"
           id="g60"><path
             id="path62"
             style="fill:#939598;fill-opacity:1;fill-rule:nonzero;stroke:none"
             d="m 0,0 c 0,2.006 -1.627,3.633 -3.633,3.633 -2.006,0 -3.633,-1.627 -3.633,-3.633 0,-2.006 1.627,-3.633 3.633,-3.633 C -1.627,-3.633 0,-2.006 0,0" /></g><g
           transform="translate(269.9536,156.9409)"
           id="g64"><path
             id="path66"
             style="fill:#939598;fill-opacity:1;fill-rule:nonzero;stroke:none"
             d="M 0,0 C 0,2.006 -1.627,3.633 -3.634,3.633 -5.64,3.633 -7.267,2.006 -7.267,0 c 0,-2.006 1.627,-3.633 3.633,-3.633 C -1.627,-3.633 0,-2.006 0,0" /></g></g></g></g></svg>